<?xml version="1.0" encoding="utf-8"?>
<!-- Generator: Adobe Illustrator 18.1.0, SVG Export Plug-In . SVG Version: 6.00 Build 0)  -->
<!DOCTYPE svg PUBLIC "-//W3C//DTD SVG 1.1//EN" "http://www.w3.org/Graphics/SVG/1.1/DTD/svg11.dtd">
<svg version="1.1" id="Livello_1" xmlns="http://www.w3.org/2000/svg" xmlns:xlink="http://www.w3.org/1999/xlink" x="0px" y="0px"
	 viewBox="0 0 960 560" enable-background="new 0 0 960 560" xml:space="preserve">
<g>
	<path fill="#FBB03B" d="M207.3,284.4V172.2h29.7c6.5,0,12.4,1.1,17.7,3.2c5.3,2.1,9.9,5.2,13.6,9.2c3.8,4,6.7,9,8.8,14.9
		c2.1,5.9,3.1,12.6,3.1,20.2v17.4c0,7.6-1,14.3-3.1,20.1c-2.1,5.9-5,10.8-8.8,14.8c-3.8,4-8.4,7.1-13.7,9.2
		c-5.3,2.1-11.3,3.2-17.9,3.2H207.3z M229.9,191.1v74.5h6.8c4,0,7.3-0.5,10-1.6c2.7-1.1,4.8-2.7,6.4-5c1.6-2.3,2.7-5.3,3.4-8.9
		c0.7-3.6,1-7.9,1-13v-17.6c0-5.1-0.3-9.5-1-13.1c-0.7-3.6-1.8-6.5-3.4-8.8c-1.6-2.3-3.7-3.9-6.4-5c-2.6-1.1-5.9-1.6-9.8-1.6H229.9z
		"/>
	<path fill="#FBB03B" d="M351.4,235.9h-35.3v29.7h41.8v18.8h-64.4V172.2h64.3v18.9h-41.6v26.5h35.3V235.9z"/>
	<path fill="#FBB03B" d="M410.4,253.6l18.9-81.4h25.3l-32.4,112.2h-23.6l-32.1-112.2h25.1L410.4,253.6z"/>
	<path fill="#FBB03B" d="M488.8,284.4h-22.7V172.2h22.7V284.4z"/>
	<path fill="#FBB03B" d="M581.9,247c-0.6,12.8-4.2,22.5-10.8,29.1c-6.6,6.6-16,9.9-28,9.9c-6.2,0-11.8-1-16.6-3.1
		c-4.9-2.1-9-5.1-12.3-9.2c-3.3-4.1-5.9-9.1-7.7-15.1c-1.8-6-2.7-12.9-2.7-20.7v-19.1c0-7.8,0.9-14.7,2.7-20.7
		c1.8-6,4.5-11,7.9-15.1c3.4-4.1,7.6-7.1,12.5-9.2c4.9-2.1,10.4-3.1,16.5-3.1c12.2,0,21.5,3.4,27.9,10.2c6.3,6.8,10,16.6,10.8,29.4
		h-22.7c-0.1-4-0.5-7.4-1-10.1c-0.6-2.7-1.5-4.8-2.7-6.4c-1.2-1.6-2.8-2.7-4.8-3.4c-2-0.7-4.4-1-7.4-1c-3,0-5.6,0.5-7.7,1.5
		c-2.1,1-3.9,2.7-5.2,5c-1.3,2.3-2.3,5.3-3,9c-0.6,3.7-1,8.3-1,13.7v19.3c0,5.2,0.3,9.7,0.8,13.4s1.4,6.7,2.7,9.1
		c1.3,2.3,3,4,5.1,5.1c2.1,1.1,4.8,1.6,8,1.6c2.8,0,5.1-0.3,7.1-0.9c2-0.6,3.6-1.6,4.9-3.1c1.3-1.5,2.3-3.5,2.9-6.2
		c0.7-2.6,1.1-5.9,1.2-9.9H581.9z"/>
	<path fill="#FBB03B" d="M652.7,235.9h-35.3v29.7h41.8v18.8h-64.4V172.2h64.3v18.9h-41.6v26.5h35.3V235.9z"/>
	<path d="M694.9,265.6h39.8v18.8h-62.4V172.2h22.7V265.6z"/>
	<path d="M803.8,261.4h-30.9l-6,23h-24L778,172.2h20.7L834,284.4h-24.2L803.8,261.4z M777.8,242.6h21l-10.5-40L777.8,242.6z"/>
	<path d="M842.5,284.4V172.2h34.7c5.6,0,10.6,0.6,15.1,1.8c4.4,1.2,8.2,3.1,11.3,5.7c3.1,2.5,5.4,5.7,7.1,9.6
		c1.6,3.9,2.4,8.4,2.4,13.6c0,2.6-0.3,5-0.8,7.4c-0.5,2.4-1.4,4.6-2.5,6.6c-1.2,2.1-2.6,3.9-4.4,5.6c-1.8,1.7-3.9,3-6.4,4.1
		c2.9,0.8,5.3,2.1,7.3,3.7c2,1.7,3.6,3.6,4.9,5.8c1.2,2.2,2.1,4.6,2.7,7.2c0.6,2.6,0.8,5.3,0.8,8c0,10.9-3,19.1-9,24.7
		c-6,5.5-14.7,8.3-26,8.3H842.5z M865.1,219.1h11.8c4.5,0,7.9-1.2,10.1-3.5c2.2-2.3,3.3-5.8,3.3-10.3c0-5.1-1-8.7-3.1-10.9
		c-2.1-2.2-5.4-3.3-10-3.3h-12V219.1z M865.1,235.6v30h14.5c2.2,0,4.1-0.4,5.7-1.1c1.6-0.7,2.9-1.7,3.9-3c1-1.3,1.7-2.8,2.2-4.6
		c0.5-1.7,0.7-3.7,0.7-5.8c0-4.8-0.9-8.6-2.7-11.3c-1.8-2.8-4.8-4.2-9-4.2H865.1z"/>
</g>
<g>
	<g>
		<path fill="#1A1A1A" d="M228.7,341.6c-6.5-10.4-12.9-20.9-19.4-31.3c-0.5-0.7-1-1.4-1.1-2.3c-0.1-1.1,0.4-1.8,1.5-2
			c0.7-0.1,1.5-0.1,2.2-0.1c4.9,0,9.8,0,14.7,0c2.9,0,5.1,1.2,6.6,3.7c6.2,10,12.3,20,18.4,30c1.6,2.6,1.6,5.1,0,7.7
			c-3.3,5.3-6.5,10.6-9.8,15.8c-0.1,0.2-0.2,0.4-0.4,0.7c-0.1,0.1-0.1,0.1-0.2,0.2l0,0c-0.1-0.1-0.2-0.2-0.2-0.3
			c-0.4-2.1-1.2-4.1-2.4-5.9c-1.3-2-2.5-4-3.7-6C232.9,348.3,231,344.9,228.7,341.6z"/>
		<path fill="#666666" d="M228.7,341.6c2.2,3.3,4.2,6.8,6.3,10.1c1.2,2,2.5,4,3.7,6c1.2,1.8,2,3.8,2.4,5.9c0,0.1,0.1,0.2,0.2,0.3
			c-1.5,2.4-2.9,4.9-4.4,7.3c-1.3,2.1-2.4,4.3-3.8,6.3c-1.4,2.1-3.4,3.3-6.1,3.3c-5.4-0.1-10.8,0-16.1,0c-0.3,0-0.7,0-1-0.1
			c-1.2-0.4-2.1-1.5-1-3.3c1-1.6,2-3.2,3-4.8c3.2-5.3,6.4-10.5,9.6-15.8c2-3.3,4-6.6,6-9.8c0.9-1.5,1.1-3.1,1.1-4.8
			C228.6,342.1,228.6,341.8,228.7,341.6z"/>
		<path fill="#E6E6E6" d="M241.4,363.9c0.1-0.1,0.1-0.1,0.2-0.2C241.5,363.8,241.4,363.9,241.4,363.9z"/>
		<path fill="#666666" d="M267.6,341.6c-6.5-10.4-12.9-20.9-19.4-31.3c-0.5-0.7-1-1.4-1.1-2.3c-0.1-1.1,0.4-1.8,1.5-2
			c0.7-0.1,1.5-0.1,2.2-0.1c4.9,0,9.8,0,14.7,0c2.9,0,5.1,1.2,6.6,3.7c6.2,10,12.3,20,18.4,30c1.6,2.6,1.6,5.1,0,7.7
			c-3.3,5.3-6.5,10.6-9.8,15.8c-0.1,0.2-0.2,0.4-0.4,0.7c-0.1,0.1-0.1,0.1-0.2,0.2l0,0c-0.1-0.1-0.2-0.2-0.2-0.3
			c-0.4-2.1-1.2-4.1-2.4-5.9c-1.3-2-2.5-4-3.7-6C271.9,348.3,269.9,344.9,267.6,341.6z"/>
		<path fill="#B3B3B3" d="M267.6,341.6c2.2,3.3,4.2,6.8,6.3,10.1c1.2,2,2.5,4,3.7,6c1.2,1.8,2,3.8,2.4,5.9c0,0.1,0.1,0.2,0.2,0.3
			c-1.5,2.4-2.9,4.9-4.4,7.3c-1.3,2.1-2.4,4.3-3.8,6.3c-1.4,2.1-3.4,3.3-6.1,3.3c-5.4-0.1-10.8,0-16.1,0c-0.3,0-0.7,0-1-0.1
			c-1.2-0.4-2.1-1.5-1-3.3c1-1.6,2-3.2,3-4.8c3.2-5.3,6.4-10.5,9.6-15.8c2-3.3,4-6.6,6-9.8c0.9-1.5,1.1-3.1,1.1-4.8
			C267.5,342.1,267.5,341.8,267.6,341.6z"/>
		<path fill="#E6E6E6" d="M280.3,363.9c0.1-0.1,0.1-0.1,0.2-0.2C280.4,363.8,280.3,363.9,280.3,363.9z"/>
	</g>
	<g>
		<path fill="#808080" d="M328.9,328.3l-4,1c-1.6,0.3-3.2,0.5-4.7,0.5c-3.9-0.1-6.6-1.3-8.3-3.6c-1.7-2.2-2.5-4.6-2.5-7
			c0-2.9,1-5.5,3-7.6c2-2.2,4.8-3.3,8.4-3.3c1.5,0,3,0.2,4.3,0.6c1.1,0.3,1.9,0.6,2.5,1c0.5,0.3,1,0.6,1.3,0.8l-2.3,2.3l-1,0.2
			l0.7-1.2c-0.2-0.3-0.5-0.6-0.8-0.9c-0.4-0.3-0.8-0.6-1.3-0.9c-0.5-0.3-1-0.6-1.7-0.7c-0.3-0.1-0.6-0.2-1-0.2c-0.4,0-0.8,0-1.2,0
			c-2.3,0-4.1,0.8-5.5,2.4c-1.5,1.6-2.2,3.6-2.3,6.2c0,2.8,0.9,5.3,2.7,7.3c1.8,2.1,4.2,3.2,7.3,3.3c0.9,0,1.6-0.1,2.2-0.3
			c0.5-0.1,1-0.3,1.4-0.5v-4.7l-4.2,0.2l2.2-1.2h6l-0.8,0.7c-0.2,0.1-0.3,0.3-0.3,0.5c0,0.4-0.1,0.9-0.1,1.4V328.3z"/>
		<path fill="#808080" d="M346.4,322.6c0,1.8-0.6,3.4-1.8,4.8c-1.2,1.4-3,2.2-5.3,2.3c-2.2,0-3.9-0.8-5.1-2.2
			c-1.2-1.4-1.8-2.9-1.8-4.7c0-2,0.7-3.6,2.1-5c1.3-1.4,3.1-2.1,5.3-2.1c2.1,0,3.7,0.7,4.9,2.1C345.8,319.2,346.4,320.8,346.4,322.6
			z M339.9,328.8c0.6,0,1.1-0.1,1.6-0.4c0.5-0.3,0.9-0.6,1.2-1.1c0.3-0.5,0.6-1,0.7-1.6c0.1-0.6,0.2-1.1,0.2-1.7c0-1.4-0.3-3-1-4.7
			c-0.4-0.8-0.8-1.5-1.4-2c-0.6-0.5-1.4-0.8-2.2-0.8c-1,0-1.8,0.4-2.6,1c-0.5,0.5-0.9,1.1-1,1.7c-0.2,0.6-0.3,1.3-0.3,1.9
			c0,0.7,0.1,1.5,0.3,2.4c0.2,0.9,0.4,1.7,0.8,2.5c0.4,0.8,0.9,1.5,1.5,2C338.3,328.6,339,328.8,339.9,328.8z"/>
		<path fill="#808080" d="M362.8,322.6c0,1.8-0.6,3.4-1.8,4.8c-1.2,1.4-3,2.2-5.3,2.3c-2.2,0-3.9-0.8-5.1-2.2
			c-1.2-1.4-1.8-2.9-1.8-4.7c0-2,0.7-3.6,2.1-5c1.3-1.4,3.1-2.1,5.3-2.1c2.1,0,3.7,0.7,4.9,2.1C362.1,319.2,362.7,320.8,362.8,322.6
			z M356.2,328.8c0.6,0,1.1-0.1,1.6-0.4c0.5-0.3,0.9-0.6,1.2-1.1c0.3-0.5,0.6-1,0.7-1.6c0.1-0.6,0.2-1.1,0.2-1.7c0-1.4-0.3-3-1-4.7
			c-0.4-0.8-0.8-1.5-1.4-2c-0.6-0.5-1.4-0.8-2.2-0.8c-1,0-1.8,0.4-2.6,1c-0.5,0.5-0.9,1.1-1,1.7c-0.2,0.6-0.3,1.3-0.3,1.9
			c0,0.7,0.1,1.5,0.3,2.4c0.2,0.9,0.4,1.7,0.8,2.5c0.4,0.8,0.9,1.5,1.5,2C354.7,328.6,355.4,328.8,356.2,328.8z"/>
		<path fill="#808080" d="M374,317.1c0.2,0.1,0.4,0.3,0.6,0.5c0.2,0.2,0.4,0.5,0.6,0.8c0.2,0.3,0.4,0.7,0.5,1.1
			c0.1,0.4,0.2,0.9,0.2,1.5c0,1-0.2,1.9-0.7,2.5c-0.2,0.3-0.4,0.6-0.7,0.8c-0.3,0.3-0.6,0.5-0.9,0.8c-0.2,0.2-0.3,0.4-0.5,0.6
			c-0.2,0.2-0.3,0.5-0.3,0.8c0,0.3,0.1,0.6,0.3,0.8c0.2,0.2,0.3,0.4,0.4,0.5l1,0.8c0.6,0.5,1.2,1.1,1.6,1.7c0.4,0.6,0.7,1.4,0.7,2.4
			c0,1.4-0.6,2.7-1.9,3.8c-1.3,1.1-3.2,1.7-5.6,1.7c-2,0-3.6-0.5-4.6-1.3c-1-0.8-1.5-1.7-1.5-2.9c0-0.5,0.2-1.1,0.5-1.8
			c0.3-0.7,0.9-1.2,1.7-1.7c0.9-0.5,1.9-0.9,3-1.1c1-0.2,1.9-0.2,2.6-0.3c-0.2-0.3-0.4-0.6-0.6-0.9c-0.2-0.3-0.3-0.7-0.3-1.1
			c0-0.3,0-0.5,0.1-0.6c0.1-0.2,0.1-0.3,0.2-0.5c-0.3,0-0.6,0.1-0.9,0.1c-1.6,0-2.7-0.5-3.5-1.5c-0.9-0.9-1.3-1.9-1.3-3.1
			c0-1.4,0.6-2.7,1.8-3.9c0.8-0.7,1.7-1.1,2.6-1.3c0.9-0.2,1.7-0.3,2.5-0.3h5.8l-1.8,1.1H374z M375.2,333.9c0-0.7-0.2-1.4-0.7-1.9
			c-0.5-0.5-1.3-1.2-2.4-1.9c-0.2,0-0.4,0-0.7,0c-0.1,0-0.5,0-1.1,0.1c-0.6,0.1-1.2,0.2-1.9,0.4c-0.1,0.1-0.4,0.1-0.6,0.3
			c-0.3,0.1-0.5,0.3-0.8,0.5c-0.3,0.2-0.5,0.5-0.7,0.9c-0.2,0.4-0.3,0.8-0.3,1.3c0,1,0.5,1.9,1.4,2.5c0.9,0.7,2.1,1,3.6,1
			c1.4,0,2.4-0.3,3.1-0.9C374.8,335.6,375.2,334.8,375.2,333.9z M371.1,325.4c0.8,0,1.4-0.3,1.9-0.8c0.2-0.4,0.4-0.8,0.5-1.1
			c0-0.4,0.1-0.7,0.1-1c0-1.1-0.3-2.3-0.9-3.5c-0.3-0.6-0.6-1-1.1-1.4c-0.5-0.3-1-0.5-1.6-0.5c-0.8,0-1.4,0.3-2,1
			c-0.4,0.6-0.7,1.4-0.6,2.2c0,1.1,0.3,2.2,0.9,3.3c0.3,0.5,0.7,1,1.2,1.4C370,325.2,370.5,325.4,371.1,325.4z"/>
		<path fill="#808080" d="M384.6,329.3h-5c0.3-0.4,0.6-0.7,0.7-0.9c0.1-0.2,0.1-0.4,0.1-0.7V323c0-2.5,0-5.3,0.1-8.5
			c0.1-1.6,0.1-3.2,0.2-4.7h-2.2l2.1-1.1h4c-0.4,0.2-0.7,0.5-0.9,0.7c-0.2,0.2-0.3,0.6-0.4,1.1c-0.2,2.4-0.3,5.7-0.3,9.9v6.7
			c0,0.5,0.1,0.9,0.2,1.1c0.2,0.2,0.5,0.3,0.9,0.3c0.5,0,1,0.1,1.4,0.1L384.6,329.3z"/>
		<path fill="#808080" d="M396.6,328.7c-0.3,0.2-0.6,0.4-0.9,0.5c-1,0.4-1.9,0.6-2.7,0.5c-0.5,0-1-0.1-1.7-0.2
			c-0.7-0.1-1.4-0.5-2.1-1c-1-0.8-1.7-1.7-2.2-2.8c-0.5-1.1-0.7-2.2-0.7-3.3c0-2.3,0.8-4,2.2-5.1c1.3-1.1,2.8-1.6,4.3-1.6
			c1.1,0,2,0.3,2.9,0.8c0.7,0.5,1.2,1,1.5,1.5c0.3,0.5,0.4,1,0.5,1.4l-6.6,2.8l-2.2,0.2c0.4,1.8,1.1,3.3,2.2,4.3
			c1,1,2.2,1.6,3.6,1.6c0.7,0,1.4-0.1,1.9-0.3c0.5-0.2,1.1-0.4,1.5-0.7L396.6,328.7z M393.9,320c0.6-0.2,0.8-0.4,0.8-0.8
			c0-0.6-0.3-1.2-0.8-1.7c-0.5-0.5-1.2-0.8-2-0.8c-0.3,0-0.6,0.1-1,0.2c-0.4,0.1-0.7,0.4-1.1,0.7c-0.3,0.3-0.6,0.7-0.9,1.3
			c-0.2,0.5-0.4,1.2-0.4,2c0,0.5,0,1,0.1,1.5L393.9,320z"/>
	</g>
	<g>
		<path fill="#808080" d="M417.3,320.6c0,3.1-0.8,5.4-2.5,7c-1.7,1.6-4.1,2.4-7.3,2.4h-5.2v-18.5h5.7c3,0,5.2,0.8,6.9,2.4
			C416.5,315.5,417.3,317.7,417.3,320.6z M414.1,320.7c0-4.4-2.1-6.7-6.2-6.7h-2.6v13.5h2.2C411.9,327.5,414.1,325.2,414.1,320.7z"
			/>
		<path fill="#808080" d="M425.9,330.3c-2.2,0-3.9-0.6-5.1-1.9c-1.2-1.3-1.8-3-1.8-5.3c0-2.3,0.6-4.1,1.7-5.4c1.1-1.3,2.7-2,4.7-2
			c1.9,0,3.3,0.6,4.4,1.7c1.1,1.1,1.6,2.7,1.6,4.6v1.6h-9.3c0,1.4,0.4,2.4,1.1,3.1c0.7,0.7,1.7,1.1,2.9,1.1c0.8,0,1.6-0.1,2.3-0.2
			c0.7-0.2,1.5-0.4,2.3-0.8v2.4c-0.7,0.3-1.5,0.6-2.2,0.7S426.9,330.3,425.9,330.3z M425.4,318c-0.9,0-1.7,0.3-2.3,0.9
			c-0.6,0.6-0.9,1.5-1,2.6h6.4c0-1.2-0.3-2-0.8-2.6C427.1,318.3,426.3,318,425.4,318z"/>
		<path fill="#808080" d="M436.8,330.1l-5.3-14h3.1l2.9,8.2c0.5,1.4,0.8,2.5,0.9,3.3h0.1c0.1-0.6,0.4-1.7,0.9-3.3l2.9-8.2h3.2
			l-5.4,14H436.8z"/>
		<path fill="#808080" d="M452.5,330.3c-2.2,0-3.9-0.6-5.1-1.9c-1.2-1.3-1.8-3-1.8-5.3c0-2.3,0.6-4.1,1.7-5.4c1.1-1.3,2.7-2,4.7-2
			c1.9,0,3.3,0.6,4.4,1.7c1.1,1.1,1.6,2.7,1.6,4.6v1.6h-9.3c0,1.4,0.4,2.4,1.1,3.1c0.7,0.7,1.7,1.1,2.9,1.1c0.8,0,1.6-0.1,2.3-0.2
			c0.7-0.2,1.5-0.4,2.3-0.8v2.4c-0.7,0.3-1.5,0.6-2.2,0.7C454.3,330.2,453.4,330.3,452.5,330.3z M451.9,318c-0.9,0-1.7,0.3-2.3,0.9
			c-0.6,0.6-0.9,1.5-1,2.6h6.4c0-1.2-0.3-2-0.8-2.6C453.6,318.3,452.9,318,451.9,318z"/>
		<path fill="#808080" d="M463.1,330.1h-3v-19.7h3V330.1z"/>
		<path fill="#808080" d="M478.7,323c0,2.3-0.6,4.1-1.8,5.4c-1.2,1.3-2.8,1.9-4.9,1.9c-1.3,0-2.5-0.3-3.5-0.9
			c-1-0.6-1.8-1.4-2.3-2.5c-0.5-1.1-0.8-2.4-0.8-3.9c0-2.3,0.6-4,1.8-5.3c1.2-1.3,2.8-1.9,4.9-1.9c2,0,3.6,0.7,4.8,2
			C478.1,319,478.7,320.8,478.7,323z M468.5,323c0,3.2,1.2,4.9,3.6,4.9c2.4,0,3.6-1.6,3.6-4.9c0-3.2-1.2-4.8-3.6-4.8
			c-1.3,0-2.2,0.4-2.7,1.2C468.7,320.3,468.5,321.5,468.5,323z"/>
		<path fill="#808080" d="M488,330.3c-1.8,0-3.2-0.6-4.1-1.9h-0.2c0.1,1.2,0.2,1.9,0.2,2.2v5.7h-3V316h2.4c0.1,0.3,0.2,0.9,0.4,1.9
			h0.2c0.9-1.4,2.3-2.1,4.2-2.1c1.8,0,3.1,0.6,4.1,1.9c1,1.3,1.5,3,1.5,5.3c0,2.3-0.5,4.1-1.5,5.4
			C491.2,329.7,489.8,330.3,488,330.3z M487.3,318.2c-1.2,0-2,0.3-2.6,1c-0.5,0.7-0.8,1.8-0.8,3.3v0.4c0,1.7,0.3,2.9,0.8,3.7
			c0.5,0.8,1.4,1.1,2.7,1.1c1,0,1.8-0.4,2.4-1.3c0.6-0.8,0.8-2,0.8-3.6c0-1.6-0.3-2.8-0.8-3.6C489.2,318.6,488.4,318.2,487.3,318.2z
			"/>
		<path fill="#808080" d="M502.1,330.3c-2.2,0-3.9-0.6-5.1-1.9c-1.2-1.3-1.8-3-1.8-5.3c0-2.3,0.6-4.1,1.7-5.4c1.1-1.3,2.7-2,4.7-2
			c1.9,0,3.3,0.6,4.4,1.7c1.1,1.1,1.6,2.7,1.6,4.6v1.6h-9.3c0,1.4,0.4,2.4,1.1,3.1c0.7,0.7,1.7,1.1,2.9,1.1c0.8,0,1.6-0.1,2.3-0.2
			c0.7-0.2,1.5-0.4,2.3-0.8v2.4c-0.7,0.3-1.5,0.6-2.2,0.7S503,330.3,502.1,330.3z M501.5,318c-0.9,0-1.7,0.3-2.3,0.9
			c-0.6,0.6-0.9,1.5-1,2.6h6.4c0-1.2-0.3-2-0.8-2.6C503.2,318.3,502.5,318,501.5,318z"/>
		<path fill="#808080" d="M516.8,315.8c0.6,0,1.1,0,1.5,0.1l-0.3,2.8c-0.4-0.1-0.9-0.2-1.3-0.2c-1.2,0-2.2,0.4-2.9,1.2
			c-0.7,0.8-1.1,1.8-1.1,3v7.3h-3v-14h2.3l0.4,2.5h0.2c0.5-0.8,1.1-1.5,1.8-2C515.2,316,516,315.8,516.8,315.8z"/>
		<path fill="#808080" d="M529.2,326.1c0,1.4-0.5,2.4-1.5,3.2c-1,0.7-2.4,1.1-4.3,1.1c-1.9,0-3.4-0.3-4.5-0.8v-2.6
			c1.6,0.8,3.2,1.1,4.6,1.1c1.8,0,2.8-0.6,2.8-1.7c0-0.4-0.1-0.7-0.3-0.9c-0.2-0.2-0.5-0.5-1-0.7c-0.5-0.3-1.1-0.5-1.9-0.9
			c-1.6-0.6-2.7-1.3-3.3-1.9c-0.6-0.6-0.9-1.4-0.9-2.4c0-1.2,0.5-2.1,1.5-2.8c1-0.7,2.3-1,4-1c1.6,0,3.2,0.3,4.7,1l-1,2.2
			c-1.5-0.6-2.8-0.9-3.8-0.9c-1.6,0-2.4,0.4-2.4,1.3c0,0.4,0.2,0.8,0.6,1.1c0.4,0.3,1.3,0.7,2.7,1.3c1.2,0.4,2,0.9,2.5,1.2
			c0.5,0.4,0.9,0.8,1.2,1.3C529.1,324.8,529.2,325.4,529.2,326.1z"/>
	</g>
	<g>
		<path fill="#666666" d="M332.9,368.4c0,3.3-1.2,5.9-3.6,7.7c-2.4,1.9-5.6,2.8-9.8,2.8c-4.2,0-7.6-0.6-10.2-1.9v-5.7
			c1.7,0.8,3.5,1.4,5.4,1.9c1.9,0.5,3.7,0.7,5.3,0.7c2.4,0,4.2-0.5,5.3-1.4c1.1-0.9,1.7-2.1,1.7-3.7c0-1.4-0.5-2.6-1.6-3.5
			c-1-1-3.2-2.1-6.5-3.4c-3.4-1.4-5.7-2.9-7.1-4.7c-1.4-1.8-2.1-3.9-2.1-6.3c0-3.1,1.1-5.5,3.3-7.3c2.2-1.8,5.1-2.7,8.8-2.7
			c3.5,0,7.1,0.8,10.6,2.3l-1.9,4.9c-3.3-1.4-6.2-2.1-8.8-2.1c-2,0-3.4,0.4-4.4,1.3c-1,0.9-1.5,2-1.5,3.4c0,1,0.2,1.8,0.6,2.5
			c0.4,0.7,1.1,1.3,2,1.9c0.9,0.6,2.6,1.4,5,2.4c2.7,1.1,4.7,2.2,6,3.2c1.3,1,2.2,2.1,2.8,3.3C332.7,365.2,332.9,366.7,332.9,368.4z
			"/>
		<path fill="#666666" d="M348.3,374.1c1.4,0,2.9-0.2,4.3-0.7v4.5c-0.7,0.3-1.5,0.5-2.5,0.7c-1,0.2-2.1,0.3-3.2,0.3
			c-5.6,0-8.4-3-8.4-8.9v-15h-3.8v-2.6l4.1-2.2l2-5.9h3.7v6.2h8v4.5h-8v14.9c0,1.4,0.4,2.5,1.1,3.2
			C346.2,373.8,347.2,374.1,348.3,374.1z"/>
		<path fill="#666666" d="M374.2,378.4l-1.2-3.9h-0.2c-1.3,1.7-2.7,2.9-4.1,3.5c-1.4,0.6-3.1,0.9-5.3,0.9c-2.7,0-4.9-0.7-6.4-2.2
			c-1.5-1.5-2.3-3.6-2.3-6.3c0-2.9,1.1-5,3.2-6.5c2.1-1.5,5.4-2.3,9.8-2.4l4.8-0.2v-1.5c0-1.8-0.4-3.1-1.2-4
			c-0.8-0.9-2.1-1.3-3.9-1.3c-1.4,0-2.8,0.2-4.1,0.6c-1.3,0.4-2.6,0.9-3.8,1.5l-1.9-4.2c1.5-0.8,3.2-1.4,5-1.8
			c1.8-0.4,3.5-0.6,5.1-0.6c3.6,0,6.2,0.8,8,2.3c1.8,1.5,2.7,4,2.7,7.3v18.8H374.2z M365.3,374.3c2.2,0,3.9-0.6,5.2-1.8
			c1.3-1.2,2-2.9,2-5.1v-2.4l-3.6,0.2c-2.8,0.1-4.8,0.6-6.1,1.4c-1.3,0.8-1.9,2.1-1.9,3.8c0,1.2,0.4,2.2,1.1,2.9
			C362.7,374,363.8,374.3,365.3,374.3z"/>
		<path fill="#666666" d="M399.3,350c1.2,0,2.2,0.1,3,0.3l-0.6,5.5c-0.8-0.2-1.7-0.3-2.6-0.3c-2.4,0-4.3,0.8-5.8,2.3
			c-1.5,1.5-2.2,3.6-2.2,6v14.6h-5.9v-27.9h4.6l0.8,4.9h0.3c0.9-1.7,2.1-3,3.6-4C396,350.4,397.6,350,399.3,350z"/>
		<path fill="#666666" d="M416.3,374.1c1.4,0,2.9-0.2,4.3-0.7v4.5c-0.7,0.3-1.5,0.5-2.5,0.7c-1,0.2-2.1,0.3-3.2,0.3
			c-5.6,0-8.4-3-8.4-8.9v-15h-3.8v-2.6l4.1-2.2l2-5.9h3.7v6.2h8v4.5h-8v14.9c0,1.4,0.4,2.5,1.1,3.2
			C414.2,373.8,415.1,374.1,416.3,374.1z"/>
		<path fill="#666666" d="M444.3,378.4l-0.8-3.7h-0.3c-0.8,1.3-2,2.3-3.5,3.1c-1.5,0.7-3.3,1.1-5.2,1.1c-3.4,0-5.9-0.8-7.6-2.5
			c-1.7-1.7-2.5-4.2-2.5-7.6v-18.3h6v17.2c0,2.1,0.4,3.7,1.3,4.8c0.9,1.1,2.2,1.6,4.1,1.6c2.5,0,4.3-0.7,5.5-2.2
			c1.2-1.5,1.8-4,1.8-7.5v-13.9h6v27.9H444.3z"/>
		<path fill="#666666" d="M470.1,378.9c-3.5,0-6.3-1.3-8.2-3.8h-0.4c0.2,2.4,0.4,3.8,0.4,4.3v11.4h-5.9v-40.3h4.8
			c0.1,0.5,0.4,1.8,0.8,3.7h0.3c1.9-2.8,4.6-4.2,8.3-4.2c3.5,0,6.2,1.3,8.1,3.8c1.9,2.5,2.9,6.1,2.9,10.6c0,4.6-1,8.1-3,10.7
			C476.3,377.6,473.6,378.9,470.1,378.9z M468.6,354.8c-2.4,0-4.1,0.7-5.2,2.1c-1.1,1.4-1.6,3.6-1.6,6.6v0.9c0,3.4,0.5,5.9,1.6,7.4
			c1.1,1.5,2.8,2.3,5.3,2.3c2.1,0,3.6-0.8,4.7-2.5c1.1-1.7,1.7-4.1,1.7-7.2c0-3.1-0.6-5.5-1.7-7.1
			C472.4,355.6,470.8,354.8,468.6,354.8z"/>
		<path fill="#666666" d="M494.9,378.4v-36.9h6v31.7h15.6v5.2H494.9z"/>
		<path fill="#666666" d="M538.3,378.4l-1.2-3.9h-0.2c-1.3,1.7-2.7,2.9-4.1,3.5c-1.4,0.6-3.1,0.9-5.3,0.9c-2.7,0-4.9-0.7-6.4-2.2
			c-1.5-1.5-2.3-3.6-2.3-6.3c0-2.9,1.1-5,3.2-6.5c2.1-1.5,5.4-2.3,9.8-2.4l4.8-0.2v-1.5c0-1.8-0.4-3.1-1.2-4
			c-0.8-0.9-2.1-1.3-3.9-1.3c-1.4,0-2.8,0.2-4.1,0.6c-1.3,0.4-2.6,0.9-3.8,1.5l-1.9-4.2c1.5-0.8,3.2-1.4,5-1.8
			c1.8-0.4,3.5-0.6,5.1-0.6c3.6,0,6.2,0.8,8,2.3c1.8,1.5,2.7,4,2.7,7.3v18.8H538.3z M529.4,374.3c2.2,0,3.9-0.6,5.2-1.8
			c1.3-1.2,2-2.9,2-5.1v-2.4l-3.6,0.2c-2.8,0.1-4.8,0.6-6.1,1.4c-1.3,0.8-1.9,2.1-1.9,3.8c0,1.2,0.4,2.2,1.1,2.9
			C526.8,374,527.9,374.3,529.4,374.3z"/>
		<path fill="#666666" d="M568.9,378.4l-0.8-3.7h-0.3c-0.8,1.3-2,2.3-3.5,3.1c-1.5,0.7-3.3,1.1-5.2,1.1c-3.4,0-5.9-0.8-7.6-2.5
			c-1.7-1.7-2.5-4.2-2.5-7.6v-18.3h6v17.2c0,2.1,0.4,3.7,1.3,4.8c0.9,1.1,2.2,1.6,4.1,1.6c2.5,0,4.3-0.7,5.5-2.2
			c1.2-1.5,1.8-4,1.8-7.5v-13.9h6v27.9H568.9z"/>
		<path fill="#666666" d="M605.1,378.4h-6v-17.2c0-2.2-0.4-3.8-1.3-4.8c-0.9-1.1-2.2-1.6-4.1-1.6c-2.5,0-4.3,0.7-5.5,2.2
			c-1.2,1.5-1.7,4-1.7,7.4v13.9h-5.9v-27.9h4.6l0.8,3.7h0.3c0.8-1.3,2-2.4,3.6-3.1c1.5-0.7,3.3-1.1,5.2-1.1c6.7,0,10,3.4,10,10.2
			V378.4z"/>
		<path fill="#666666" d="M622,378.9c-4.2,0-7.4-1.2-9.6-3.7c-2.2-2.5-3.3-6-3.3-10.6c0-4.7,1.1-8.3,3.4-10.8
			c2.3-2.5,5.6-3.8,10-3.8c2.9,0,5.6,0.5,8,1.6l-1.8,4.8c-2.5-1-4.6-1.5-6.2-1.5c-4.8,0-7.2,3.2-7.2,9.6c0,3.1,0.6,5.5,1.8,7.1
			c1.2,1.6,3,2.4,5.3,2.4c2.6,0,5.1-0.7,7.5-2v5.2c-1.1,0.6-2.2,1.1-3.4,1.3C625.2,378.8,623.7,378.9,622,378.9z"/>
		<path fill="#666666" d="M659.3,378.4h-6v-17.2c0-2.2-0.4-3.8-1.3-4.8c-0.9-1.1-2.2-1.6-4.1-1.6c-2.5,0-4.3,0.7-5.5,2.2
			c-1.2,1.5-1.8,4-1.8,7.5v13.9h-5.9v-39.3h5.9v10c0,1.6-0.1,3.3-0.3,5.1h0.4c0.8-1.3,1.9-2.4,3.4-3.1c1.4-0.7,3.1-1.1,5-1.1
			c6.8,0,10.1,3.4,10.1,10.2V378.4z"/>
	</g>
</g>
<rect x="50" y="169.2" fill="#FBB03B" width="131" height="215"/>
<path fill="#F7931E" d="M153.6,172l-0.6,80.1v0.2c-15,0.2-27.5,11.3-27.5,28.1l0.6,43.6H115v57h63V280.3v-14.2V172H153.6z"/>
<path fill="#F7931E" d="M76.2,251.9c-15.5,0-28.1,11.1-28.1,28.1h56.1C104.3,263,91.7,251.9,76.2,251.9z"/>
<g>
	<defs>
		<circle id="SVGID_1_" cx="114.5" cy="217.5" r="25.5"/>
	</defs>
	<clipPath id="SVGID_2_">
		<use xlink:href="#SVGID_1_"  overflow="visible"/>
	</clipPath>
	<rect x="89" y="192.1" clip-path="url(#SVGID_2_)" fill="#FFFFFF" width="26" height="25.5"/>
	<rect x="115" y="192.1" clip-path="url(#SVGID_2_)" width="26" height="25.5"/>
	<rect x="89" y="217.5" clip-path="url(#SVGID_2_)" width="26" height="25.5"/>
	<rect x="115" y="217.5" clip-path="url(#SVGID_2_)" fill="#FFFFFF" width="26" height="25.5"/>
</g>
<circle cx="76.2" cy="279.6" r="14.3"/>
<circle cx="153.2" cy="279.6" r="14.3"/>
<path d="M115.2,361.5c21.7,0,39.3-8.5,39.3-20.5H76C76,353,93.6,361.5,115.2,361.5z"/>
<path fill="#FFFFFF" d="M115.2,353.5c17.6,0,31.9-5.5,31.9-12.5H83.3C83.3,348,97.6,353.5,115.2,353.5z"/>
<path d="M115,146.9c-41.6,0-75,6.9-75,15.1v242.7c0,8.2,33.4,15.1,75,15.1s75-6.9,75-15.1V162C190,153.8,156.6,146.9,115,146.9z
	 M178,172v209H52V172H178z"/>
<path fill="#333333" d="M135.7,163.3H91.3c-1.8,0-3.2-1.4-3.2-3.2v-0.4c0-1.8,1.4-3.2,3.2-3.2h44.4c1.8,0,3.2,1.4,3.2,3.2v0.4
	C138.9,161.9,137.4,163.3,135.7,163.3z"/>
<g>
</g>
<g>
</g>
<g>
</g>
<g>
</g>
<g>
</g>
<g>
</g>
<g>
</g>
<g>
</g>
<g>
</g>
<g>
</g>
<g>
</g>
<g>
</g>
<g>
</g>
<g>
</g>
<g>
</g>
</svg>
